<svg xmlns="http://www.w3.org/2000/svg" width="43.36" height="40.01" viewBox="0 0 43.36 40.01">
  <g id="Calque_2" data-name="Calque 2">
    <g id="Calque_1-2" data-name="Calque 1">
      <g id="Chat3">
        <path id="Tracé_1307" data-name="Tracé 1307" d="M40.91,40a1.71,1.71,0,0,1-.55-.09l-9.84-3.17a1.84,1.84,0,1,1,1.13-3.5l6.46,2.08-1.7-5.5a1.84,1.84,0,1,1,3.51-1.1l2.75,8.89a1.79,1.79,0,0,1-.46,1.84,1.82,1.82,0,0,1-1.3.54Z" style="fill: #140a82"/>
        <path id="Tracé_1308" data-name="Tracé 1308" d="M21.68,39C9.72,39,0,30.21,0,19.48S9.72,0,21.68,0,43.36,8.74,43.36,19.48A18,18,0,0,1,39.63,30.4a1.84,1.84,0,0,1-2.94-2.2,14.43,14.43,0,0,0,3-8.72c0-8.72-8.09-15.8-18-15.8s-18,7.08-18,15.8,8.09,15.8,18,15.8a20.16,20.16,0,0,0,8.61-1.92,1.84,1.84,0,0,1,1.65,3.28l-.07,0A23.63,23.63,0,0,1,21.68,39Z" style="fill: #140a82"/>
      </g>
    </g>
  </g>
</svg>
