<svg xmlns="http://www.w3.org/2000/svg" width="43.36" height="43.36" viewBox="0 0 43.36 43.36">
  <g id="Calque_2" data-name="Calque 2">
    <g id="Calque_1-2" data-name="Calque 1">
      <g id="FlecheDCercle">
        <g id="FlecheG4">
          <path id="Tracé_519" data-name="Tracé 519" d="M17.13,6.86a1.59,1.59,0,0,1,1.16.48L31.45,20.49a1.67,1.67,0,0,1,0,2.33L18.29,36a1.65,1.65,0,1,1-2.42-2.23l.1-.09,12-12-12-12a1.66,1.66,0,0,1,0-2.32A1.61,1.61,0,0,1,17.13,6.86Z" style="fill: #140a82"/>
        </g>
        <path id="Tracé_1162" data-name="Tracé 1162" d="M21.68,0A21.68,21.68,0,1,1,0,21.68,21.68,21.68,0,0,1,21.68,0Zm0,39.69a18,18,0,1,0-18-18h0A18,18,0,0,0,21.68,39.69Z" style="fill: #140a82"/>
      </g>
    </g>
  </g>
</svg>
