<svg xmlns="http://www.w3.org/2000/svg" width="43.36" height="43.36" viewBox="0 0 43.36 43.36">
  <g id="Calque_2" data-name="Calque 2">
    <g id="Calque_1-2" data-name="Calque 1">
      <g id="Info">
        <path id="Tracé_1160" data-name="Tracé 1160" d="M21.68,32.34a1.85,1.85,0,0,1-1.84-1.84h0V20.21a1.84,1.84,0,0,1,3.68,0V30.5a1.84,1.84,0,0,1-1.84,1.84Z" style="fill: #140a82"/>
        <path id="Tracé_1161" data-name="Tracé 1161" d="M21.68,15.56a1.84,1.84,0,0,1-1.84-1.84v-.86a1.84,1.84,0,0,1,3.68,0v.86a1.84,1.84,0,0,1-1.84,1.84Z" style="fill: #140a82"/>
        <path id="Tracé_1162" data-name="Tracé 1162" d="M21.68,43.36A21.68,21.68,0,1,1,43.36,21.68,21.68,21.68,0,0,1,21.68,43.36Zm0-39.69a18,18,0,1,0,18,18h0A18,18,0,0,0,21.68,3.67Z" style="fill: #140a82"/>
      </g>
    </g>
  </g>
</svg>
