<svg xmlns="http://www.w3.org/2000/svg" width="36.13" height="43.36" viewBox="0 0 36.13 43.36">
  <g id="Calque_2" data-name="Calque 2">
    <g id="Calque_1-2" data-name="Calque 1">
      <g id="Bonhomme">
        <path id="Tracé_216" data-name="Tracé 216" d="M31.1,43.36H5a5,5,0,0,1-4-1.92,4.88,4.88,0,0,1-.93-4.15,18.43,18.43,0,0,1,35.87,0,4.84,4.84,0,0,1-.94,4.15A5,5,0,0,1,31.1,43.36Zm-13-16.59A14.71,14.71,0,0,0,3.67,38.13a1.26,1.26,0,0,0,.24,1A1.44,1.44,0,0,0,5,39.69H31.1a1.37,1.37,0,0,0,1.08-.52,1.25,1.25,0,0,0,.24-1A14.7,14.7,0,0,0,18.06,26.77Z" style="fill: #140a82"/>
        <path id="Tracé_217" data-name="Tracé 217" d="M18.06,19.56a9.78,9.78,0,1,1,9.78-9.78,9.78,9.78,0,0,1-9.78,9.78Zm0-15.89a6.11,6.11,0,1,0,6.11,6.11,6.11,6.11,0,0,0-6.11-6.11Z" style="fill: #140a82"/>
      </g>
    </g>
  </g>
</svg>
